<svg xmlns="http://www.w3.org/2000/svg" viewBox="0 0 265.92 229.19"><defs><style>.cls-1,.cls-2,.cls-3,.cls-5,.cls-7{fill:#262626;}.cls-1,.cls-2,.cls-3,.cls-5,.cls-6,.cls-7{stroke:#d1d1d1;stroke-miterlimit:10;}.cls-1{stroke-width:0.18px;}.cls-2{stroke-width:0.28px;}.cls-3{stroke-width:0.33px;}.cls-4{fill:#d1d1d1;}.cls-5{stroke-width:0.51px;}.cls-6{fill:none;stroke-width:0.56px;}.cls-7{stroke-width:0.64px;}</style></defs><g id="Layer_2" data-name="Layer 2"><g id="Layer_1-2" data-name="Layer 1"><path class="cls-1" d="M166.72,205.33h-68a2.4,2.4,0,0,1-1.94-.77l-2.07-2.89c-.59-.83.43-1.76,2-1.76h72.85c1.62,0,2.64,1.05,1.84,1.89l-2.76,2.89A2.59,2.59,0,0,1,166.72,205.33Z"/><path class="cls-1" d="M166.72,210.74h-68a2.43,2.43,0,0,1-1.94-.76l-2.07-2.9c-.59-.83.43-1.75,2-1.75h72.85c1.62,0,2.64,1,1.84,1.88l-2.76,2.9A2.59,2.59,0,0,1,166.72,210.74Z"/><path class="cls-1" d="M166.72,216.16h-68a2.4,2.4,0,0,1-1.94-.77l-2.07-2.89c-.59-.83.43-1.76,2-1.76h72.85c1.62,0,2.64,1,1.84,1.89l-2.76,2.89A2.55,2.55,0,0,1,166.72,216.16Z"/><path class="cls-2" d="M166.72,229h-68a2.22,2.22,0,0,1-1.94-1.82l-2.07-6.88c-.59-2,.43-4.18,2-4.18h72.85c1.62,0,2.64,2.48,1.84,4.48l-2.76,6.89A2.11,2.11,0,0,1,166.72,229Z"/><path class="cls-3" d="M166.72,182.61h-68c-.85,0-1.61,1-1.94,2.45l-2.07,9.24c-.59,2.66.43,5.61,2,5.61h72.85c1.62,0,2.64-3.33,1.84-6l-2.76-9.24C168.18,183.39,167.48,182.61,166.72,182.61Z"/><path class="cls-3" d="M193.59,131.71,136.46,41.2v87.94a11.78,11.78,0,1,1-7,0V41.46L72.18,132.21a4,4,0,0,0-.08,4.14l26.3,45.77a1,1,0,0,0,.85.49h67.59a1,1,0,0,0,.85-.49l26-45.26A5,5,0,0,0,193.59,131.71Z"/><path class="cls-4" d="M38.94,105.33A94.83,94.83,0,0,1,45.5,68.2,96.3,96.3,0,0,1,97.71,15,96.55,96.55,0,0,1,204.08,36.39,95.86,95.86,0,0,1,224.77,68.2a94.64,94.64,0,0,1,6.55,37.13A102.56,102.56,0,0,0,229,86.65a95.62,95.62,0,0,0-5.79-17.82,96.37,96.37,0,0,0-51.91-50.9,95.8,95.8,0,0,0-72.41,0A97,97,0,0,0,41.22,86.65,103.45,103.45,0,0,0,38.94,105.33Z"/><circle class="cls-5" cx="37.4" cy="106.62" r="6.96"/><circle class="cls-5" cx="232.73" cy="106.62" r="6.96"/><line class="cls-6" x1="9.14" y1="9.14" x2="256.78" y2="9.14"/><circle class="cls-7" cx="9.14" cy="9.14" r="8.82"/><circle class="cls-7" cx="132.96" cy="9.14" r="8.82"/><circle class="cls-7" cx="256.78" cy="9.14" r="8.82"/></g></g></svg>