<svg xmlns="http://www.w3.org/2000/svg" viewBox="0 0 247.22 230.97"><defs><style>.cls-1,.cls-5{fill:none;}.cls-1{stroke:#595959;stroke-width:0.42px;}.cls-1,.cls-2,.cls-4,.cls-5,.cls-6{stroke-miterlimit:10;}.cls-2,.cls-4,.cls-6{fill:#262626;stroke:#d1d1d1;}.cls-2{stroke-width:0.14px;}.cls-3{fill:#595959;}.cls-4,.cls-5{stroke-width:0.17px;}.cls-5{stroke:#e2e2e2;}.cls-6{stroke-width:0.06px;}</style></defs><g id="Layer_2" data-name="Layer 2"><g id="Layer_1-2" data-name="Layer 1"><line class="cls-1" y1="223.95" x2="243.94" y2="223.95"/><line class="cls-1" y1="215" x2="243.94" y2="215"/><line class="cls-1" y1="206.05" x2="243.94" y2="206.05"/><line class="cls-1" y1="197.1" x2="243.94" y2="197.1"/><line class="cls-1" y1="188.15" x2="243.94" y2="188.15"/><line class="cls-1" y1="179.2" x2="243.94" y2="179.2"/><line class="cls-1" y1="170.26" x2="243.94" y2="170.26"/><line class="cls-1" y1="161.31" x2="243.94" y2="161.31"/><line class="cls-1" y1="152.36" x2="243.94" y2="152.36"/><line class="cls-1" y1="143.41" x2="243.94" y2="143.41"/><line class="cls-1" y1="134.46" x2="243.94" y2="134.46"/><line class="cls-1" y1="125.51" x2="243.94" y2="125.51"/><line class="cls-1" y1="116.56" x2="243.94" y2="116.56"/><line class="cls-1" y1="107.61" x2="243.94" y2="107.61"/><line class="cls-1" y1="98.66" x2="243.94" y2="98.66"/><line class="cls-1" y1="89.71" x2="243.94" y2="89.71"/><line class="cls-1" y1="80.76" x2="243.94" y2="80.76"/><line class="cls-1" y1="71.81" x2="243.94" y2="71.81"/><line class="cls-1" y1="62.86" x2="243.94" y2="62.86"/><line class="cls-1" y1="53.91" x2="243.94" y2="53.91"/><line class="cls-1" y1="44.96" x2="243.94" y2="44.96"/><line class="cls-1" y1="36.01" x2="243.94" y2="36.01"/><line class="cls-1" y1="27.06" x2="243.94" y2="27.06"/><line class="cls-1" y1="18.11" x2="243.94" y2="18.11"/><line class="cls-1" y1="9.16" x2="243.94" y2="9.16"/><line class="cls-1" y1="0.21" x2="243.94" y2="0.21"/><path class="cls-2" d="M10.91,82.35,47.52,94.1c1.73.56,3.35-1.51,3.35-4.28V29c0-2-.85-3.71-2.07-4.22L12.18,9.46c-1.76-.74-3.5,1.35-3.5,4.22V78.07C8.68,80.15,9.61,81.94,10.91,82.35Z"/><path class="cls-3" d="M47.66,39.11,11.15,24.53a.33.33,0,0,1-.15-.31V20.63c0-.21.12-.36.25-.31L47.76,34.9a.33.33,0,0,1,.15.31V38.8C47.91,39,47.79,39.16,47.66,39.11Z"/><path class="cls-3" d="M47.66,45.75,11.15,31.17a.33.33,0,0,1-.15-.31V27.27c0-.21.12-.36.25-.31L47.76,41.54a.33.33,0,0,1,.15.31v3.59C47.91,45.65,47.79,45.8,47.66,45.75Z"/><path class="cls-3" d="M47.66,52.39,11.15,37.81A.33.33,0,0,1,11,37.5V33.91c0-.21.12-.36.25-.31L47.76,48.18a.33.33,0,0,1,.15.31v3.59C47.91,52.29,47.79,52.44,47.66,52.39Z"/><path class="cls-3" d="M47.66,59,11.15,44.45a.33.33,0,0,1-.15-.31V40.55c0-.21.12-.36.25-.31L47.76,54.82a.33.33,0,0,1,.15.31v3.59C47.91,58.93,47.79,59.08,47.66,59Z"/><path class="cls-3" d="M47.66,65.67,11.15,51.09a.32.32,0,0,1-.15-.31V47.19c0-.21.12-.36.25-.31L47.76,61.46a.33.33,0,0,1,.15.31v3.59C47.91,65.57,47.79,65.72,47.66,65.67Z"/><path class="cls-3" d="M47.66,72.31,11.15,57.73a.32.32,0,0,1-.15-.31V53.83c0-.21.12-.36.25-.31L47.76,68.1a.33.33,0,0,1,.15.31V72C47.91,72.21,47.79,72.36,47.66,72.31Z"/><path class="cls-3" d="M47.66,79,11.15,64.37a.32.32,0,0,1-.15-.31V60.47c0-.21.12-.36.25-.31L47.76,74.74a.33.33,0,0,1,.15.31v3.59C47.91,78.85,47.79,79,47.66,79Z"/><path class="cls-3" d="M47.66,85.59,11.15,71A.32.32,0,0,1,11,70.7V67.11c0-.21.12-.36.25-.31L47.76,81.38a.33.33,0,0,1,.15.31v3.59C47.91,85.49,47.79,85.64,47.66,85.59Z"/><rect class="cls-4" x="59.89" y="11.55" width="104.91" height="73.65" rx="5.4"/><line class="cls-5" x1="59.89" y1="24.72" x2="164.8" y2="24.72"/><line class="cls-5" x1="86.27" y1="11.55" x2="86.27" y2="24.72"/><circle class="cls-3" cx="67.71" cy="17.8" r="1.78"/><circle class="cls-3" cx="73.14" cy="17.8" r="1.78"/><circle class="cls-3" cx="78.57" cy="17.8" r="1.78"/><rect class="cls-3" x="65.6" y="31.84" width="27.26" height="6.46" rx="0.52"/><rect class="cls-3" x="131.27" y="31.84" width="27.26" height="6.46" rx="0.52"/><rect class="cls-3" x="98.43" y="31.84" width="27.26" height="6.46" rx="0.52"/><rect class="cls-3" x="65.6" y="40.47" width="27.26" height="6.46" rx="0.52"/><rect class="cls-3" x="131.27" y="40.47" width="27.26" height="6.46" rx="0.52"/><rect class="cls-3" x="98.43" y="40.47" width="27.26" height="6.46" rx="0.52"/><rect class="cls-3" x="131.27" y="49.1" width="27.26" height="6.46" rx="0.52"/><rect class="cls-3" x="98.43" y="49.1" width="27.26" height="6.46" rx="0.52"/><rect class="cls-3" x="98.43" y="57.74" width="27.26" height="6.46" rx="0.52"/><circle class="cls-4" cx="68.53" cy="35.07" r="1.48"/><circle class="cls-4" cx="101.2" cy="35.07" r="1.48"/><circle class="cls-4" cx="133.87" cy="35.07" r="1.48"/><path class="cls-4" d="M232.48,92.19,175,103.94a4.37,4.37,0,0,1-5.24-4.28V38.82A4.36,4.36,0,0,1,173,34.6l57.44-15.31A4.37,4.37,0,0,1,236,23.51v64.4A4.37,4.37,0,0,1,232.48,92.19Z"/><path class="cls-6" d="M245.51,48l-27.15,3.06c-1.28.15-2.48-.39-2.48-1.11V34.06c0-.52.63-1,1.54-1.1l27.14-4c1.31-.19,2.6.35,2.6,1.1V46.88C247.16,47.42,246.47,47.89,245.51,48Z"/><path class="cls-6" d="M228.51,84.61l-27.15,3.07c-1.28.14-2.48-.4-2.48-1.12V70.67c0-.51.63-1,1.54-1.1l27.14-4c1.31-.2,2.6.35,2.6,1.1V83.49C230.16,84,229.47,84.5,228.51,84.61Z"/><path class="cls-6" d="M204.4,60.55l-27.14,3.07c-1.28.14-2.48-.4-2.48-1.12V46.61c0-.52.63-1,1.53-1.1l27.15-4c1.31-.19,2.59.36,2.59,1.1V59.43C206.05,60,205.36,60.44,204.4,60.55Z"/><path class="cls-6" d="M191.12,109.64,164,112.71c-1.28.14-2.48-.4-2.48-1.12V95.7c0-.51.63-1,1.53-1.1l27.15-4c1.31-.2,2.59.35,2.59,1.1v16.81C192.77,109.07,192.08,109.53,191.12,109.64Z"/><ellipse class="cls-3" cx="180.09" cy="50.38" rx="3.47" ry="2.96" transform="translate(-6.22 34.27) rotate(-10.69)"/><ellipse class="cls-3" cx="221.2" cy="37.84" rx="3.47" ry="2.96" transform="translate(-3.18 41.67) rotate(-10.69)"/><ellipse class="cls-3" cx="204.13" cy="74.69" rx="3.47" ry="2.96" transform="translate(-10.31 39.15) rotate(-10.69)"/><ellipse class="cls-3" cx="166.81" cy="99.52" rx="3.47" ry="2.96" transform="translate(-15.56 32.66) rotate(-10.69)"/><path class="cls-3" d="M185.4,48.92l17.32-2.6a.08.08,0,0,0,.07-.08l.1-1a.1.1,0,0,0-.11-.1l-17.32,2.59a.11.11,0,0,0-.08.08l-.09,1A.1.1,0,0,0,185.4,48.92Z"/><path class="cls-3" d="M185.4,51.53l17.32-2.59a.08.08,0,0,0,.07-.08l.1-1a.1.1,0,0,0-.11-.1l-17.32,2.6s-.07,0-.08.08l-.09,1A.1.1,0,0,0,185.4,51.53Z"/><path class="cls-3" d="M226.66,36.61,244,34c.05,0,.08,0,.08-.08l.09-1c0-.06,0-.1-.11-.1l-17.31,2.6a.09.09,0,0,0-.08.08l-.09,1A.09.09,0,0,0,226.66,36.61Z"/><path class="cls-3" d="M226.66,39.22,244,36.63c.05,0,.08,0,.08-.08l.09-1c0-.05,0-.1-.11-.09L226.72,38s-.08,0-.08.08l-.09,1A.09.09,0,0,0,226.66,39.22Z"/><path class="cls-3" d="M209.48,73.18l17.32-2.6s.07,0,.08-.08l.09-1a.1.1,0,0,0-.11-.1L209.54,72a.08.08,0,0,0-.07.08l-.1,1A.1.1,0,0,0,209.48,73.18Z"/><path class="cls-3" d="M209.48,75.79l17.32-2.6s.07,0,.08-.08l.09-1a.1.1,0,0,0-.11-.1l-17.32,2.6a.08.08,0,0,0-.07.08l-.1,1A.1.1,0,0,0,209.48,75.79Z"/><path class="cls-3" d="M172.21,98l17.31-2.6a.08.08,0,0,0,.08-.08l.09-1a.09.09,0,0,0-.11-.1l-17.31,2.59a.11.11,0,0,0-.08.08l-.09,1A.1.1,0,0,0,172.21,98Z"/><path class="cls-3" d="M172.21,100.58,189.52,98a.07.07,0,0,0,.08-.08l.09-1a.09.09,0,0,0-.11-.1l-17.31,2.6s-.07,0-.08.08l-.09,1A.1.1,0,0,0,172.21,100.58Z"/><path class="cls-2" d="M244.93,200.57l-36.62,11.74c-1.72.56-3.34-1.51-3.34-4.28V147.19c0-2,.85-3.71,2.07-4.22l36.61-15.3c1.77-.74,3.51,1.35,3.51,4.22v64.4C247.16,198.36,246.23,200.15,244.93,200.57Z"/><path class="cls-3" d="M208.18,157.32l36.51-14.58a.32.32,0,0,0,.15-.31v-3.59c0-.21-.12-.36-.25-.31l-36.51,14.58a.33.33,0,0,0-.15.31V157C207.93,157.22,208.05,157.37,208.18,157.32Z"/><path class="cls-3" d="M208.18,164l36.51-14.58a.32.32,0,0,0,.15-.31v-3.59c0-.21-.12-.36-.25-.31l-36.51,14.58a.33.33,0,0,0-.15.31v3.59C207.93,163.86,208.05,164,208.18,164Z"/><path class="cls-3" d="M208.18,170.6,244.69,156a.32.32,0,0,0,.15-.31v-3.59c0-.21-.12-.36-.25-.31l-36.51,14.58a.34.34,0,0,0-.15.31v3.59C207.93,170.5,208.05,170.65,208.18,170.6Z"/><path class="cls-3" d="M208.18,177.24l36.51-14.58a.32.32,0,0,0,.15-.31v-3.59c0-.21-.12-.36-.25-.31L208.08,173a.34.34,0,0,0-.15.31v3.59C207.93,177.14,208.05,177.29,208.18,177.24Z"/><path class="cls-3" d="M208.18,183.88l36.51-14.58a.32.32,0,0,0,.15-.31V165.4c0-.21-.12-.36-.25-.31l-36.51,14.58a.34.34,0,0,0-.15.31v3.59C207.93,183.78,208.05,183.93,208.18,183.88Z"/><path class="cls-3" d="M208.18,190.52l36.51-14.58a.31.31,0,0,0,.15-.3V172c0-.21-.12-.36-.25-.31l-36.51,14.58a.34.34,0,0,0-.15.31v3.59C207.93,190.42,208.05,190.57,208.18,190.52Z"/><path class="cls-3" d="M208.18,197.16l36.51-14.58a.31.31,0,0,0,.15-.3v-3.6c0-.21-.12-.36-.25-.31L208.08,193a.34.34,0,0,0-.15.31v3.59C207.93,197.06,208.05,197.21,208.18,197.16Z"/><path class="cls-3" d="M208.18,203.8l36.51-14.58a.31.31,0,0,0,.15-.3v-3.6c0-.21-.12-.36-.25-.31l-36.51,14.58a.34.34,0,0,0-.15.31v3.59C207.93,203.7,208.05,203.85,208.18,203.8Z"/><rect class="cls-4" x="91.04" y="129.76" width="104.91" height="73.65" rx="5.4" transform="translate(286.99 333.17) rotate(180)"/><line class="cls-5" x1="195.95" y1="142.93" x2="91.04" y2="142.93"/><line class="cls-5" x1="169.57" y1="129.76" x2="169.57" y2="142.93"/><circle class="cls-3" cx="188.13" cy="136.01" r="1.78"/><circle class="cls-3" cx="182.7" cy="136.01" r="1.78"/><circle class="cls-3" cx="177.27" cy="136.01" r="1.78"/><rect class="cls-3" x="162.99" y="150.05" width="27.26" height="6.46" rx="0.52" transform="translate(353.23 306.57) rotate(180)"/><rect class="cls-3" x="97.31" y="150.05" width="27.26" height="6.46" rx="0.52" transform="translate(221.88 306.57) rotate(180)"/><rect class="cls-3" x="130.15" y="150.05" width="27.26" height="6.46" rx="0.52" transform="translate(287.56 306.57) rotate(180)"/><rect class="cls-3" x="162.99" y="158.68" width="27.26" height="6.46" rx="0.52" transform="translate(353.23 323.83) rotate(180)"/><rect class="cls-3" x="97.31" y="158.68" width="27.26" height="6.46" rx="0.52" transform="translate(221.88 323.83) rotate(180)"/><rect class="cls-3" x="130.15" y="158.68" width="27.26" height="6.46" rx="0.52" transform="translate(287.56 323.83) rotate(180)"/><rect class="cls-3" x="97.31" y="167.32" width="27.26" height="6.46" rx="0.52" transform="translate(221.88 341.09) rotate(180)"/><rect class="cls-3" x="130.15" y="167.32" width="27.26" height="6.46" rx="0.52" transform="translate(287.56 341.09) rotate(180)"/><rect class="cls-3" x="130.15" y="175.95" width="27.26" height="6.46" rx="0.52" transform="translate(287.56 358.36) rotate(180)"/><circle class="cls-4" cx="187.31" cy="153.28" r="1.48"/><circle class="cls-4" cx="154.64" cy="153.28" r="1.48"/><circle class="cls-4" cx="121.97" cy="153.28" r="1.48"/><path class="cls-4" d="M23.36,210.4,80.8,222.15A4.37,4.37,0,0,0,86,217.87V157a4.37,4.37,0,0,0-3.24-4.22L25.36,137.5a4.37,4.37,0,0,0-5.49,4.22v64.4A4.36,4.36,0,0,0,23.36,210.4Z"/><path class="cls-6" d="M10.33,166.21l27.15,3.07c1.28.14,2.48-.4,2.48-1.12V152.27c0-.52-.63-1-1.54-1.1l-27.14-4c-1.31-.19-2.6.36-2.6,1.11v16.81C8.68,165.63,9.37,166.1,10.33,166.21Z"/><path class="cls-6" d="M27.33,202.82l27.15,3.07c1.28.15,2.48-.39,2.48-1.12V188.89c0-.52-.63-1-1.54-1.11l-27.14-4c-1.31-.2-2.6.35-2.6,1.1v16.82C25.68,202.25,26.37,202.72,27.33,202.82Z"/><path class="cls-6" d="M51.43,178.76l27.15,3.07c1.28.14,2.48-.4,2.48-1.12V164.82c0-.51-.63-1-1.53-1.1l-27.15-4c-1.31-.19-2.6.36-2.6,1.11v16.81C49.78,178.18,50.47,178.65,51.43,178.76Z"/><path class="cls-6" d="M64.71,227.85l27.15,3.07c1.28.15,2.48-.39,2.48-1.12V213.92c0-.52-.63-1-1.53-1.11l-27.15-4c-1.31-.2-2.6.35-2.6,1.1v16.82C63.06,227.28,63.75,227.75,64.71,227.85Z"/><ellipse class="cls-3" cx="75.74" cy="168.6" rx="2.96" ry="3.47" transform="translate(-103.97 211.76) rotate(-79.31)"/><ellipse class="cls-3" cx="34.64" cy="156.05" rx="2.96" ry="3.47" transform="translate(-125.12 161.15) rotate(-79.31)"/><ellipse class="cls-3" cx="51.71" cy="192.9" rx="2.96" ry="3.47" transform="matrix(0.19, -0.98, 0.98, 0.19, -147.44, 207.94)"/><ellipse class="cls-3" cx="89.02" cy="217.74" rx="2.96" ry="3.47" transform="translate(-141.44 264.84) rotate(-79.31)"/><path class="cls-3" d="M70.44,167.13l-17.32-2.59a.11.11,0,0,1-.08-.09l-.09-1a.1.1,0,0,1,.11-.1l17.32,2.6s.07,0,.08.08l.09,1A.1.1,0,0,1,70.44,167.13Z"/><path class="cls-3" d="M70.44,169.74l-17.32-2.59a.11.11,0,0,1-.08-.08l-.09-1a.09.09,0,0,1,.11-.09l17.32,2.59s.07,0,.08.08l.09,1A.1.1,0,0,1,70.44,169.74Z"/><path class="cls-3" d="M29.18,154.82l-17.31-2.59s-.08,0-.08-.08l-.09-1a.08.08,0,0,1,.1-.09l17.32,2.59a.11.11,0,0,1,.08.08l.09,1A.1.1,0,0,1,29.18,154.82Z"/><path class="cls-3" d="M29.18,157.43l-17.31-2.59s-.08,0-.08-.08l-.09-1a.09.09,0,0,1,.1-.1l17.32,2.59a.11.11,0,0,1,.08.08l.09,1A.09.09,0,0,1,29.18,157.43Z"/><path class="cls-3" d="M46.35,191.39,29,188.79s-.07,0-.08-.08l-.09-1a.1.1,0,0,1,.11-.1l17.31,2.6a.07.07,0,0,1,.08.08l.09,1A.09.09,0,0,1,46.35,191.39Z"/><path class="cls-3" d="M46.35,194,29,191.41a.11.11,0,0,1-.08-.08l-.09-1a.1.1,0,0,1,.11-.1l17.31,2.6a.08.08,0,0,1,.08.08l.09,1A.09.09,0,0,1,46.35,194Z"/><path class="cls-3" d="M83.63,216.18l-17.31-2.6a.08.08,0,0,1-.08-.08l-.09-1a.09.09,0,0,1,.1-.1L83.57,215s.07,0,.08.08l.09,1A.1.1,0,0,1,83.63,216.18Z"/><path class="cls-3" d="M83.63,218.79,66.32,216.2s-.08,0-.08-.08l-.09-1c0-.06,0-.1.1-.1l17.32,2.6s.07,0,.08.08l.09,1A.1.1,0,0,1,83.63,218.79Z"/></g></g></svg>