<svg xmlns="http://www.w3.org/2000/svg" viewBox="0 0 306.14 235.92"><defs><style>.cls-1{fill:#262626;}.cls-1,.cls-4,.cls-5{stroke:#d1d1d1;}.cls-1,.cls-2,.cls-4,.cls-5{stroke-miterlimit:10;stroke-width:0.41px;}.cls-2,.cls-4{fill:none;}.cls-2{stroke:#e2e2e2;}.cls-3,.cls-5{fill:#595959;}</style></defs><g id="Layer_2" data-name="Layer 2"><g id="Layer_1-2" data-name="Layer 1"><rect class="cls-1" x="52.01" y="0.21" width="253.92" height="178.25" rx="13.06"/><line class="cls-2" x1="52.01" y1="32.08" x2="305.93" y2="32.08"/><line class="cls-2" x1="115.87" y1="0.21" x2="115.87" y2="32.08"/><circle class="cls-3" cx="70.94" cy="15.34" r="4.32"/><circle class="cls-3" cx="84.09" cy="15.34" r="4.32"/><polyline class="cls-4" points="285.21 91.56 267.51 148.64 238.12 124.05 207.31 62.79 163.05 91.56 154.91 138.64 101.55 125.53 70.94 103.58"/><circle class="cls-3" cx="97.23" cy="15.34" r="4.32"/><circle class="cls-5" cx="285.21" cy="91.56" r="3.36"/><circle class="cls-5" cx="267.51" cy="148.64" r="3.36"/><circle class="cls-5" cx="238.12" cy="124.05" r="3.36"/><circle class="cls-5" cx="207.31" cy="62.79" r="3.36"/><circle class="cls-5" cx="163.05" cy="91.56" r="3.36"/><circle class="cls-5" cx="154.91" cy="138.64" r="3.36"/><circle class="cls-5" cx="101.55" cy="125.53" r="3.36"/><circle class="cls-5" cx="70.94" cy="103.58" r="3.36"/><rect class="cls-1" x="0.21" y="57.46" width="253.92" height="178.25" rx="13.06"/><line class="cls-2" x1="0.21" y1="89.33" x2="254.13" y2="89.33"/><line class="cls-2" x1="64.06" y1="57.46" x2="64.06" y2="89.33"/><circle class="cls-3" cx="19.14" cy="72.6" r="4.32"/><circle class="cls-3" cx="32.28" cy="72.6" r="4.32"/><circle class="cls-3" cx="45.43" cy="72.6" r="4.32"/><rect class="cls-3" x="14.89" y="104.27" width="68.72" height="9.03" rx="0.82"/><rect class="cls-3" x="14.89" y="118.79" width="88.55" height="9.03" rx="0.93"/><rect class="cls-3" x="14.89" y="133.31" width="118.29" height="9.03" rx="1.08"/><rect class="cls-3" x="14.89" y="147.82" width="100.94" height="9.03" rx="1"/><rect class="cls-3" x="14.89" y="162.34" width="79.34" height="9.03" rx="0.88"/><rect class="cls-3" x="14.89" y="176.86" width="112.35" height="9.03" rx="1.05"/><rect class="cls-3" x="14.89" y="191.38" width="164.68" height="9.03" rx="1.27"/><rect class="cls-3" x="14.89" y="205.9" width="194.78" height="9.03" rx="1.38"/><rect class="cls-3" x="198.97" y="101.28" width="45.15" height="80.03" rx="2.33"/></g></g></svg>