<svg xmlns="http://www.w3.org/2000/svg" viewBox="0 0 607.77 218.31"><defs><style>.cls-1{fill:#0;}</style></defs><g id="Layer_2" data-name="Layer 2"><g id="Layer_1-2" data-name="Layer 1"><g id="Layer_2-2" data-name="Layer 2"><g id="Layer_1-2-2" data-name="Layer 1-2"><path class="cls-1" d="M376.33,109.31a187.79,187.79,0,0,1-34.57,108.87c-1.74.09-3.5.13-5.26.13A108.72,108.72,0,0,1,282,203.73a109,109,0,0,0,0-188.84A108.52,108.52,0,0,1,336.5.31c1.76,0,3.52,0,5.26.13A187.76,187.76,0,0,1,376.33,109.31Z"/><path class="cls-1" d="M470.33,109.31a187.79,187.79,0,0,1-34.57,108.87c-1.74.09-3.5.13-5.26.13A108.72,108.72,0,0,1,376,203.73a109,109,0,0,0,0-188.84A108.52,108.52,0,0,1,430.5.31c1.76,0,3.52,0,5.26.13A187.76,187.76,0,0,1,470.33,109.31Z"/><path class="cls-1" d="M564.33,109.31a187.79,187.79,0,0,1-34.57,108.87c-1.74.09-3.5.13-5.26.13A108.72,108.72,0,0,1,470,203.73a109,109,0,0,0,0-188.84A108.52,108.52,0,0,1,524.5.31c1.76,0,3.52,0,5.26.13A187.76,187.76,0,0,1,564.33,109.31Z"/><path class="cls-1" d="M188,109.31a187.79,187.79,0,0,0,34.57,108.87c1.74.09,3.5.13,5.26.13a108.72,108.72,0,0,0,54.5-14.58,109,109,0,0,1,0-188.84A108.52,108.52,0,0,0,227.83.31c-1.76,0-3.52,0-5.26.13A187.76,187.76,0,0,0,188,109.31Z"/><path class="cls-1" d="M94,109.31a187.79,187.79,0,0,0,34.57,108.87c1.74.09,3.5.13,5.26.13a108.72,108.72,0,0,0,54.5-14.58,109,109,0,0,1,0-188.84A108.52,108.52,0,0,0,133.83.31c-1.76,0-3.52,0-5.26.13A187.76,187.76,0,0,0,94,109.31Z"/><path class="cls-1" d="M0,109.31A187.79,187.79,0,0,0,34.57,218.18c1.74.09,3.5.13,5.26.13a108.72,108.72,0,0,0,54.5-14.58,109,109,0,0,1,0-188.84A108.52,108.52,0,0,0,39.83.31c-1.76,0-3.52,0-5.26.13A187.76,187.76,0,0,0,0,109.31Z"/></g></g><path class="cls-1" d="M576.94,3.22h-5.47V0h14.9V3.22H580.9V17.1h-4Z"/><path class="cls-1" d="M604.06,17.1l0-10.26-5,8.45h-1.78l-5-8.23v10H588.5V0h3.27l6.4,10.63L604.47,0h3.25l0,17.1Z"/></g></g></svg>