<svg width="137" height="22" viewBox="0 0 137 22" fill="none" xmlns="http://www.w3.org/2000/svg">
<path d="M12.6379 0.394712C14.3456 0.379464 16.0437 0.651167 17.6614 1.19848C19.1526 1.7035 20.5425 2.46888 21.7664 3.45909C22.8321 4.32911 23.7109 5.40563 24.35 6.62394C24.9584 7.8136 25.2757 9.13074 25.2757 10.467C25.2757 11.8032 24.9584 13.1203 24.35 14.31C23.7179 15.5268 22.8378 16.5976 21.7664 17.4533C20.5414 18.4455 19.1521 19.2155 17.6614 19.7283C16.0467 20.2898 14.3474 20.569 12.6379 20.5536C10.9471 20.5688 9.26667 20.2895 7.67171 19.7283C6.18772 19.2152 4.80552 18.4452 3.58827 17.4533C2.50816 16.595 1.61441 15.5254 0.961656 14.31C0.330286 13.1274 0 11.8075 0 10.467C0 9.12642 0.330286 7.80651 0.961656 6.62394C1.62139 5.4071 2.51384 4.33177 3.58827 3.45909C4.80439 2.46907 6.18713 1.70357 7.67171 1.19848C9.26967 0.651394 10.9489 0.379608 12.6379 0.394712ZM16.7787 6.64547C16.2024 6.20999 15.5637 5.86401 14.8841 5.61923C14.1588 5.36058 13.3936 5.23183 12.6235 5.23887C11.8585 5.23612 11.0987 5.36478 10.3773 5.61923C9.71141 5.85047 9.09181 6.19793 8.54725 6.64547C7.9757 7.11533 7.50879 7.69958 7.17653 8.36066C6.83683 9.02691 6.66442 9.76583 6.67418 10.5136C6.66561 11.2429 6.83823 11.963 7.17653 12.6092C7.51758 13.2645 7.9918 13.8414 8.56878 14.3028C9.10651 14.7671 9.72752 15.1251 10.3988 15.3578C11.1203 15.6122 11.88 15.7409 12.6451 15.7381C13.4151 15.7452 14.1803 15.6164 14.9057 15.3578C15.5902 15.1111 16.23 14.7548 16.8003 14.3028C17.3566 13.8321 17.815 13.2567 18.1495 12.6092C18.4878 11.963 18.6604 11.2429 18.6518 10.5136C18.6616 9.76583 18.4892 9.02691 18.1495 8.36066C17.8111 7.70353 17.3451 7.12044 16.7787 6.64547Z" fill="black"/>
<path d="M39.7003 5.23887V20.3096H33.0477V5.23887H27.3926V0.394707H44.4943L44.4584 5.26757L39.7003 5.23887Z" fill="black"/>
<path d="M53.1492 1.30613V12.8245H59.766V1.11954H66.4258V21.5727H59.766V17.6686H53.1492V20.6828H46.4966V1.30613H53.1492Z" fill="black"/>
<path d="M85.3146 6.10005L76.5521 6.04264V9.51608H81.9488V14.3531H76.5521V16.1544H85.0921V20.9985H69.8994V1.22719L85.3146 1.30613V6.10005Z" fill="black"/>
<path d="M99.6174 14.2813C100.251 14.6444 100.936 14.9105 101.648 15.0707C102.742 15.3028 103.864 15.3753 104.978 15.286L105.344 20.1302C104.174 20.1848 103.001 20.1537 101.835 20.0369C100.866 19.933 99.9064 19.7554 98.9644 19.5058C98.1708 19.2989 97.3993 19.0153 96.6607 18.659C96.0521 18.3726 95.4708 18.0315 94.924 17.6399V20.1661H88.1924V0C89.4483 0 90.7401 0 92.0534 0C93.3667 0 94.6656 0.0717653 95.9359 0.18659C97.1456 0.295217 98.3453 0.496754 99.5241 0.789419C100.615 1.039 101.661 1.45535 102.624 2.02378C103.474 2.53029 104.196 3.22514 104.734 4.05474C105.292 4.97261 105.592 6.02372 105.603 7.09759C105.622 7.83286 105.495 8.56463 105.229 9.25055C104.954 9.97772 104.556 10.6524 104.053 11.2456C103.498 11.8964 102.856 12.4665 102.144 12.9393C101.355 13.4812 100.508 13.9315 99.6174 14.2813ZM94.924 10.5423C95.6586 10.3904 96.367 10.1316 97.0267 9.77444C97.5485 9.5008 98.0136 9.13064 98.3974 8.6836C98.694 8.33507 98.8856 7.90952 98.95 7.45642C98.9965 7.03393 98.8783 6.60977 98.6199 6.27229C98.269 5.84909 97.8174 5.52088 97.3066 5.31781C96.5451 5.01587 95.7413 4.83428 94.924 4.77957V10.5423Z" fill="black"/>
<path d="M120.386 6.90382C120.186 6.70961 119.964 6.53868 119.726 6.39429C119.415 6.22819 119.085 6.10276 118.743 6.02111C118.24 5.90147 117.724 5.846 117.207 5.85605C116.927 5.8589 116.65 5.89995 116.382 5.97805C116.161 6.02466 115.957 6.12584 115.786 6.27229C115.758 6.29847 115.736 6.33014 115.72 6.36533C115.705 6.40051 115.697 6.43846 115.697 6.47682C115.697 6.51518 115.705 6.55313 115.72 6.58831C115.736 6.6235 115.758 6.65517 115.786 6.68135C116.087 6.91432 116.443 7.06517 116.819 7.11912L117.487 7.31289C117.702 7.36189 117.911 7.43408 118.111 7.52818C119.184 7.86754 120.234 8.27504 121.254 8.74819C122.231 9.19014 123.13 9.78623 123.917 10.5136C124.609 11.1298 125.147 11.899 125.489 12.7599C125.771 13.4954 125.879 14.2864 125.804 15.0707C125.709 15.8402 125.436 16.5771 125.008 17.2237C124.544 17.9417 123.956 18.5712 123.271 19.0824C122.505 19.6554 121.659 20.1125 120.759 20.4388C119.761 20.8056 118.714 21.0232 117.652 21.0847C116.89 21.1492 116.124 21.1492 115.362 21.0847C114.597 21.0106 113.842 20.8567 113.109 20.6254C111.923 20.292 110.812 19.7341 109.837 18.9819C108.87 18.2398 108.125 17.247 107.684 16.1113L113.999 14.5755C114.111 14.8355 114.277 15.0692 114.484 15.2619C114.692 15.4546 114.937 15.6021 115.205 15.6951C115.787 15.92 116.412 16.0155 117.035 15.975C117.466 15.9534 117.891 15.8588 118.291 15.6951C118.472 15.6421 118.636 15.5395 118.763 15.3988C118.889 15.2581 118.974 15.0848 119.008 14.8985C119.031 14.5637 118.926 14.2327 118.714 13.9727C118.472 13.6767 118.184 13.4222 117.86 13.2192C117.504 12.9853 117.127 12.7858 116.733 12.6235C116.354 12.4631 115.966 12.3241 115.571 12.2073C115.37 12.1499 115.197 12.1068 115.054 12.0566L114.609 11.9346C113.22 11.5956 111.912 10.9832 110.762 10.1333C109.957 9.54176 109.341 8.72892 108.99 7.79371C108.718 6.98374 108.731 6.10527 109.026 5.30346C109.35 4.42521 109.891 3.64284 110.597 3.0285C111.42 2.32694 112.367 1.78646 113.389 1.43531C114.609 0.972102 115.902 0.729117 117.207 0.717653C118.577 0.667032 119.945 0.849024 121.254 1.25589C122.227 1.56029 123.159 1.97949 124.032 2.50461C124.827 3.01102 125.551 3.62167 126.185 4.32027L120.386 6.90382Z" fill="black"/>
<path d="M133.29 20.6325C132.803 20.6327 132.319 20.5601 131.854 20.4172C131.433 20.2895 131.035 20.0931 130.677 19.8359C130.355 19.6129 130.084 19.3243 129.881 18.9891C129.685 18.675 129.583 18.3115 129.587 17.9413C129.583 17.5667 129.685 17.1986 129.881 16.8792C130.083 16.5396 130.355 16.2462 130.677 16.018C131.035 15.7608 131.433 15.5644 131.854 15.4367C132.319 15.2938 132.803 15.2212 133.29 15.2214C133.776 15.22 134.26 15.2926 134.725 15.4367C135.149 15.5629 135.55 15.7594 135.909 16.018C136.23 16.2483 136.501 16.5412 136.706 16.8792C136.898 17.1999 137 17.5671 137 17.9413C137 18.311 136.898 18.6736 136.706 18.9891C136.501 19.3228 136.23 19.6109 135.909 19.8359C135.55 20.0945 135.149 20.291 134.725 20.4172C134.26 20.5613 133.776 20.6339 133.29 20.6325Z" fill="black"/>
</svg>
