<svg width="137" height="16" viewBox="0 0 137 16" fill="none" xmlns="http://www.w3.org/2000/svg">
<g clip-path="url(#clip0_144_58)">
<path d="M20.8944 16C19.0464 16 17.695 15.5266 16.8405 14.5797C15.9912 13.6088 15.5586 12.0923 15.5586 10.0141V0.280853H18.6511V10.7763C18.6035 11.4326 18.8101 12.082 19.228 12.5898C19.4403 12.8104 19.6977 12.9827 19.9824 13.0949C20.2672 13.207 20.5728 13.2564 20.8784 13.2397C21.1851 13.2565 21.4919 13.2072 21.778 13.0951C22.0641 12.983 22.3229 12.8106 22.5368 12.5898C22.9568 12.0824 23.1687 11.4342 23.1296 10.7763V0.280853H26.2142V10.0141C26.2142 12.1164 25.7975 13.6409 24.9483 14.5797C24.0991 15.5186 22.7691 16 20.8944 16ZM31.0692 0.280853H34.3861L38.7444 11.5146V0.280853H41.4604V15.7031H38.1676L33.7932 4.46942V15.7031H31.0692V0.280853ZM46.9965 13.0151H50.105V2.96089H46.9965V0.280853H56.2981V2.96089H53.1895V13.0151H56.2981V15.7031H46.9965V13.0151ZM50.057 13.0151H53.1575V2.96089H50.057V0.280853H59.3585V2.96089H56.25V13.0151H59.3585V15.7031H50.057V13.0151Z" fill="#0A0A0A"/>
<path d="M71.5685 16C70.6628 16.0563 69.7566 15.8999 68.922 15.5432C68.0874 15.1866 67.3476 14.6396 66.7614 13.9458C65.6959 12.5657 65.103 10.5918 65.103 8.02407C65.103 5.45637 65.6959 3.42628 66.7695 2.05416C67.3556 1.36041 68.0954 0.813415 68.93 0.456775C69.7646 0.100135 70.6708 -0.0562816 71.5765 -2.22307e-06C72.1583 -0.0016009 72.7386 0.060282 73.307 0.184551C73.8357 0.307677 74.3471 0.496361 74.8292 0.746237V4.1324C74.5673 3.88223 74.283 3.65661 73.98 3.45837C73.7599 3.3066 73.5266 3.17501 73.283 3.06519C73.0257 2.95339 72.7571 2.86998 72.4818 2.81645C72.2181 2.76282 71.9497 2.73594 71.6806 2.73621C71.1771 2.71249 70.6763 2.82244 70.2289 3.05494C69.7815 3.28744 69.4034 3.63423 69.1329 4.06018C68.4955 5.27884 68.2123 6.65221 68.3157 8.02407C68.2277 9.38764 68.5277 10.7482 69.181 11.9478C69.4499 12.3759 69.8275 12.7247 70.2751 12.9587C70.7227 13.1927 71.2243 13.3036 71.7287 13.2798C72.2649 13.2803 72.795 13.1654 73.283 12.9428C73.5351 12.8284 73.7764 12.6914 74.004 12.5336C74.2885 12.3395 74.5565 12.1221 74.8052 11.8836V15.2457C74.3161 15.4906 73.7998 15.6765 73.2669 15.7994C72.7098 15.9283 72.1403 15.9956 71.5685 16ZM85.4607 16C84.6932 16.0438 83.9279 15.8809 83.2446 15.5281C82.5612 15.1753 81.9847 14.6456 81.5751 13.994C80.7205 12.6673 80.2932 10.672 80.2932 8.00802C80.2932 5.34403 80.7205 3.33801 81.5751 1.98997C82.0215 1.3797 82.6052 0.883396 83.2789 0.541286C83.9527 0.199176 84.6974 0.0208925 85.4527 0.0208925C86.2081 0.0208925 86.9528 0.199176 87.6265 0.541286C88.3002 0.883396 88.884 1.3797 89.3304 1.98997C90.185 3.33801 90.6123 5.34938 90.6123 8.02407C90.6123 13.3414 88.8951 16 85.4607 16ZM85.4607 13.4162C85.834 13.4129 86.1953 13.2836 86.4861 13.0492C86.7768 12.8147 86.9801 12.4889 87.0631 12.1244C87.4553 10.7893 87.6231 9.39823 87.5598 8.00802C87.624 6.61251 87.4561 5.21601 87.0631 3.87562C86.9801 3.5111 86.7768 3.18526 86.4861 2.95082C86.1953 2.71638 85.834 2.58705 85.4607 2.58375C84.7557 2.58375 84.235 3.00902 83.9065 3.87562C83.5134 5.21601 83.3456 6.61251 83.4098 8.00802C83.3464 9.39823 83.5143 10.7893 83.9065 12.1244C84.2189 12.991 84.7397 13.4162 85.4447 13.4162H85.4607ZM85.4607 10.9529C85.3406 10.9529 85.2524 10.8245 85.1884 10.5757C85.1197 10.3115 85.0662 10.0436 85.0281 9.77332C85.0281 9.50852 84.972 9.20361 84.948 8.84253C84.924 8.48144 84.8999 8.2006 84.8999 8.04012C84.8999 7.87964 84.8999 7.67101 84.8999 7.32598C84.9116 6.99032 84.941 6.65551 84.9881 6.32297C85.0842 5.52056 85.2284 5.11133 85.4127 5.11133C85.5969 5.11133 85.605 5.23169 85.6851 5.46439C85.7757 5.74858 85.8348 6.04188 85.8613 6.33902C85.8613 6.63591 85.9174 6.94884 85.9334 7.3019C85.9495 7.65496 85.9815 7.91173 85.9815 8.10431C85.9815 8.29689 85.9815 8.44935 85.9815 8.78636C85.9815 9.12337 85.9815 9.46038 85.9094 9.79739C85.8133 10.5436 85.669 10.9529 85.4607 10.9529ZM95.8119 0.28084H99.1127C101.676 0.28084 103.511 0.874622 104.633 2.07823C105.227 2.75338 105.655 3.55858 105.883 4.42929C106.199 5.6005 106.344 6.81121 106.315 8.02407C106.315 10.7469 105.754 12.7128 104.633 13.9218C103.503 15.1334 101.668 15.7432 99.1127 15.7432H95.8119V0.28084ZM99.7296 12.9509C100.223 12.9993 100.72 12.9208 101.174 12.7228C101.628 12.5248 102.025 12.2139 102.325 11.8195C102.846 11.017 103.127 9.78134 103.127 7.97593C103.127 6.17051 102.87 4.91073 102.325 4.15647C102.026 3.76088 101.63 3.44907 101.175 3.25094C100.721 3.05282 100.223 2.97504 99.7296 3.02507H98.9284V12.9509H99.7296ZM111.507 0.28084H121.241V2.96088H114.567V6.29087H120.584V8.97893H114.567V12.991H121.217V15.679H111.507V0.28084Z" fill="#0A0A0A"/>
<path d="M125.944 10.9689L134.26 8.02407L125.944 5.10331V2.51956L137 6.82046V9.22769L125.944 13.5125V10.9689Z" fill="#B6F600"/>
<path d="M0 9.25978V6.85256L11.0561 2.51956V5.10331L2.74 8.02408L11.0561 10.9689V13.5446L0 9.25978Z" fill="#B6F600"/>
</g>
<defs>
<clipPath id="clip0_144_58">
<rect width="137" height="16" fill="white"/>
</clipPath>
</defs>
</svg>
